<!-- Generated by IcoMoon.io -->
<svg version="1.1" xmlns="http://www.w3.org/2000/svg" width="32" height="32" viewBox="0 0 32 32">
<title>form-mail-icon</title>
<path d="M26.671 5.334h-21.337c-1.467 0-2.653 1.2-2.653 2.667l-0.014 16.003c0 1.467 1.2 2.667 2.667 2.667h21.337c1.467 0 2.667-1.2 2.667-2.667v-16.003c0-1.467-1.2-2.667-2.667-2.667zM26.137 11.003l-9.427 5.893c-0.201 0.126-0.446 0.2-0.708 0.2s-0.506-0.075-0.713-0.204l0.006 0.003-9.427-5.893c-0.336-0.201-0.557-0.562-0.557-0.975 0-0.626 0.507-1.133 1.133-1.133 0.233 0 0.449 0.070 0.629 0.19l-0.004-0.003 8.935 5.587 8.935-5.588c0.176-0.118 0.392-0.188 0.625-0.188 0.626 0 1.133 0.507 1.133 1.133 0 0.413-0.221 0.775-0.552 0.973l-0.005 0.003z"></path>
</svg>
